mtllib 004_sugar_box.mtl
o 004_sugar_box
usemtl ycb_004_sugar_box_material
v 0.0124399997 -0.0630820021 0.002232
v -0.0248360001 -0.0619070008 0.000732999993
v 0.00778899994 -0.0294610001 0.000176000001
v -0.00679200003 -0.0635740012 0.0203559995
v -0.0248360001 -0.0619070008 0.000732999993
v 0.0124399997 -0.0630820021 0.002232
v -0.0195640009 -0.0108580003 -8.39999993e-05
v -0.0289719999 -0.0605610013 0.122160003
v -0.0263260007 -0.0513500012 0.00224200008
v -0.0300249998 -0.0357589982 0.108800001
v -0.0281300005 -0.0144849997 0.0251509994
v 0.00808000006 -0.0615030006 0.104947001
v 0.0158050004 -0.0368589982 0.0365709998
v 0.00784400012 -0.0501919985 0.147530004
v 0.0149689997 -0.0158210006 0.0851669982
v -0.0240000002 0.013673 0.00176300004
v -0.0250690002 0.00955899991 0.00588899991
v 0.0165810008 0.0251899995 0.00115300005
v -0.0198139995 0.0286149997 0.00239700009
v -0.02152 0.0247610006 0.0056309998
v 0.0176260006 0.00571600022 0.0139279999
v 0.0165810008 0.0251899995 0.00115300005
v -0.0198139995 0.0286149997 0.00239700009
v -0.00355400005 0.0283429995 0.00656699995
v -0.0188580006 0.0271029994 0.00975599978
v -0.0188580006 0.0271029994 0.00975599978
v -0.0262080003 0.0273460001 0.110923998
v 0.013367 0.0264199991 0.0491049998
v 0.0105370004 0.0269329995 0.138142005
v -0.0289089996 -0.00195199996 0.108152002
v -0.0305710007 -0.0590460002 0.147007003
v -0.0318240002 -0.0589659996 0.174200997
v 0.00411899993 -0.0611389987 0.173062995
v 0.00602299999 -0.0598350018 0.170012996
v -0.0312590003 -0.0251739994 0.172104999
v 0.00708300015 -0.0421050005 0.175431997
v 0.00829199981 0.00870500039 0.159390002
v -0.0027699999 -0.0596770011 0.175312996
v -0.0038389999 -0.0128929997 0.176129997
v -0.0027699999 -0.0596770011 0.175312996
v -0.0288740005 0.0289650001 0.173241004
v 0.00411899993 -0.0611389987 0.173062995
v 0.00411899993 -0.0611389987 0.173062995
v 0.00708300015 -0.0421050005 0.175431997
v 0.00944899954 0.00614600023 0.173504993
v 0.00944899954 0.00614600023 0.173504993
v -0.0237680003 0.0290120002 0.118349999
v -0.0237680003 0.0290120002 0.118349999
v -0.0265909992 0.0297999997 0.155709997
v -0.0265909992 0.0297999997 0.155709997
v -0.0262080003 0.0273460001 0.110923998
v 0.00831099972 0.0283129998 0.169952005
v 0.00889500044 0.0283599999 0.173936993
v -0.0288740005 0.0289650001 0.173241004
v 0.00889500044 0.0283599999 0.173936993
v 0.000694999995 0.0279319994 0.175043002
vt 0.0187539998 0.651818007
vt 0.162297994 0.638770014
vt 0.045651 0.767810002
vt 0.239445001 0.57623601
vt 0.166985005 0.636130989
vt 0.169036001 0.493991017
vt 0.152851999 0.832925007
vt 0.634549975 0.643546999
vt 0.179625005 0.674380004
vt 0.578951001 0.736018986
vt 0.284786999 0.811738998
vt 0.563983023 0.498688996
vt 0.316109985 0.383073986
vt 0.714622021 0.431007981
vt 0.50385797 0.309027016
vt 0.175020993 0.924603999
vt 0.187380999 0.904149003
vt 0.0236840006 0.979900001
vt 0.172646999 0.979981
vt 0.186731994 0.966958001
vt 0.231493995 0.274622977
vt 0.176376998 0.152177989
vt 0.188852996 0.0164539814
vt 0.199558005 0.0787780285
vt 0.198801994 0.980957
vt 0.218769997 0.0160539746
vt 0.590098977 0.975398
vt 0.365148008 0.141569018
vt 0.698871017 0.160733998
vt 0.576853991 0.867241994
vt 0.717819989 0.646631002
vt 0.834088027 0.644122988
vt 0.825154006 0.505984008
vt 0.813072979 0.493982017
vt 0.825780988 0.775838003
vt 0.833995998 0.433808029
vt 0.780571997 0.22636199
vt 0.837541997 0.532727987
vt 0.937130988 0.823764995
vt 0.948243976 0.645749003
vt 0.848295987 0.980455
vt 0.825673997 0.501821011
vt 0.973290026 0.644722998
vt 0.978886008 0.699258
vt 0.833679974 0.243403018
vt 0.981025994 0.864957005
vt 0.62827301 0.0255089998
vt 0.549908996 0.988231
vt 0.753700018 0.982423
vt 0.773386002 0.0247650146
vt 0.612996995 0.0141320229
vt 0.821967006 0.160453975
vt 0.835669994 0.157184005
vt 0.827600002 0.0167310238
vt 0.978443027 0.959481001
vt 0.947776973 0.980737999
vn 0.591978967 -0.605878472 -0.531481087
vn -0.56178695 -0.604585946 -0.564686894
vn 0.122098252 -0.0161997676 -0.992385805
vn -0.0281000938 -0.999603331 -0.00190000632
vn -0.56178695 -0.604585946 -0.564686894
vn 0.591978967 -0.605878472 -0.531481087
vn -0.152006313 0.0382015854 -0.987640977
vn -0.691126645 -0.722727835 0.00290011172
vn -0.905491233 -0.0375996381 -0.422695935
vn -0.999872625 -0.00939974282 -0.0128996465
vn -0.997722447 0.0376008451 -0.0560012572
vn 0.634534121 -0.76994139 0.0675036311
vn 0.994659364 -0.101995833 0.0157993548
vn 0.995707691 -0.0773005933 0.0509003922
vn 0.997951984 -0.0271986909 0.0578972138
vn -0.701258957 0.19308871 -0.686259866
vn -0.989798486 0.0951998532 -0.105999835
vn 0.588495612 0.570995688 -0.572395682
vn -0.51442945 0.733442008 -0.444325447
vn -0.930350959 0.366280675 -0.0168991089
vn 0.999091387 0.00319997221 -0.0424996316
vn 0.588495612 0.570995688 -0.572395682
vn -0.51442945 0.733442008 -0.444325447
vn 0.0375995897 0.996189117 -0.0786991417
vn -0.366099626 0.924299002 0.107899889
vn -0.366099626 0.924299002 0.107899889
vn -0.836356103 0.548171222 -0.00409978488
vn 0.271488696 0.962259948 0.0186992213
vn 0.922634006 0.378213942 0.0755027831
vn -0.99819231 0.0600995384 0.000399996905
vn -0.987856925 -0.151993364 -0.0321985967
vn -0.613264441 -0.520569801 0.594065547
vn 0.484814227 -0.704120696 0.518815219
vn 0.865983129 -0.448591262 0.220995694
vn -0.992024004 0.0516012497 0.115002789
vn 0.691424429 -0.00580020482 0.72242552
vn 0.999926209 0.00110002875 0.0121003166
vn 0.0702993423 -0.52159512 0.850292027
vn 0.0297993757 0.0187996067 0.999379098
vn 0.0702993423 -0.52159512 0.850292027
vn -0.591621637 0.620522678 0.514718831
vn 0.484814227 -0.704120696 0.518815219
vn 0.484814227 -0.704120696 0.518815219
vn 0.691424429 -0.00580020482 0.72242552
vn 0.813637614 0.0632029176 0.577926695
vn 0.813637614 0.0632029176 0.577926695
vn -0.216407031 0.976131678 -0.0183005948
vn -0.216407031 0.976131678 -0.0183005948
vn -0.632780731 0.774276376 -0.00919971988
vn -0.632780731 0.774276376 -0.00919971988
vn -0.836356103 0.548171222 -0.00409978488
vn 0.70629257 0.70749253 -0.0245997403
vn 0.623514473 0.561013043 0.544512689
vn -0.591621637 0.620522678 0.514718831
vn 0.623514473 0.561013043 0.544512689
vn 0.0775996149 0.594697058 0.800196052
f 1/1/1 2/2/2 3/3/3
f 4/4/4 5/5/5 6/6/6
f 3/3/3 2/2/2 7/7/7
f 5/5/5 4/4/4 8/8/8
f 9/9/9 10/10/10 11/11/11
f 8/8/8 9/9/9 2/2/2
f 9/9/9 8/8/8 10/10/10
f 12/12/12 4/4/4 6/6/6
f 6/6/6 13/13/13 12/12/12
f 12/12/12 8/8/8 4/4/4
f 13/13/13 14/14/14 12/12/12
f 13/13/13 15/15/15 14/14/14
f 2/2/2 9/9/9 16/16/16
f 17/17/17 16/16/16 9/9/9
f 11/11/11 17/17/17 9/9/9
f 16/16/16 7/7/7 2/2/2
f 3/3/3 7/7/7 18/18/18
f 3/3/3 18/18/18 1/1/1
f 18/18/18 7/7/7 19/19/19
f 7/7/7 16/16/16 19/19/19
f 20/20/20 19/19/19 16/16/16
f 21/21/21 6/6/6 22/22/22
f 22/22/22 23/23/23 24/24/24
f 17/17/17 20/20/20 16/16/16
f 25/25/25 19/19/19 20/20/20
f 26/26/26 24/24/24 23/23/23
f 27/27/27 25/25/25 20/20/20
f 27/27/27 20/20/20 17/17/17
f 24/24/24 28/28/28 22/22/22
f 28/28/28 24/24/24 26/26/26
f 29/29/29 21/21/21 22/22/22
f 29/29/29 22/22/22 28/28/28
f 30/30/30 11/11/11 10/10/10
f 27/27/27 11/11/11 30/30/30
f 13/13/13 6/6/6 21/21/21
f 15/15/15 13/13/13 21/21/21
f 15/15/15 21/21/21 29/29/29
f 31/31/31 30/30/30 10/10/10
f 32/32/32 8/8/8 33/33/33
f 12/12/12 14/14/14 34/34/34
f 10/10/10 8/8/8 31/31/31
f 32/32/32 31/31/31 8/8/8
f 35/35/35 31/31/31 32/32/32
f 33/33/33 8/8/8 12/12/12
f 33/33/33 12/12/12 34/34/34
f 14/14/14 36/36/36 34/34/34
f 37/37/37 14/14/14 15/15/15
f 32/32/32 33/33/33 38/38/38
f 39/39/39 32/32/32 40/40/40
f 35/35/35 32/32/32 41/41/41
f 36/36/36 42/42/42 34/34/34
f 43/43/43 44/44/44 40/40/40
f 40/40/40 44/44/44 39/39/39
f 32/32/32 39/39/39 41/41/41
f 36/36/36 14/14/14 45/45/45
f 37/37/37 45/45/45 14/14/14
f 39/39/39 44/44/44 46/46/46
f 17/17/17 11/11/11 27/27/27
f 47/47/47 28/28/28 26/26/26
f 27/27/27 48/48/48 25/25/25
f 31/31/31 49/49/49 30/30/30
f 49/49/49 27/27/27 30/30/30
f 50/50/50 47/47/47 51/51/51
f 52/52/52 47/47/47 50/50/50
f 49/49/49 31/31/31 35/35/35
f 41/41/41 49/49/49 35/35/35
f 52/52/52 50/50/50 53/53/53
f 54/54/54 53/53/53 50/50/50
f 29/29/29 37/37/37 15/15/15
f 28/28/28 47/47/47 52/52/52
f 52/52/52 29/29/29 28/28/28
f 52/52/52 37/37/37 29/29/29
f 55/55/55 56/56/56 39/39/39
f 55/55/55 39/39/39 46/46/46
f 45/45/45 37/37/37 52/52/52
f 53/53/53 45/45/45 52/52/52
f 56/56/56 41/41/41 39/39/39
f 56/56/56 55/55/55 41/41/41
